<?xml version="1.0" encoding="UTF-8"?>
<svg id="Camada_1" data-name="Camada 1" xmlns="http://www.w3.org/2000/svg" viewBox="0 0 210.92 210.44">
  <defs>
    <style>
      .cls-1, .cls-2 {
        fill: #fff;
      }

      .cls-3 {
        fill: #5f0f94;
      }

      .cls-2 {
        stroke: #5f0f94;
        stroke-miterlimit: 10;
        stroke-width: 3px;
      }
    </style>
  </defs>
  <path class="cls-2" d="M209.41,103.65c.86,58-45.91,105.29-103.71,105.29-1.64,0-3.33-.04-4.93-.12v.12H1.95l13.77-52.11C6.96,141.64,1.95,124,1.95,105.22,1.95,47.49,49.13.76,107.07,1.51c55.87.72,101.52,46.27,102.34,102.14Z"/>
  <path class="cls-3" d="M184.6,105.68c-.25,43.33-35.44,78.37-78.83,78.37-1.25,0-2.46-.04-3.72-.12v.12H33.03l7.32-34.86c-8.45-12.6-13.38-27.7-13.38-43.98,0-44.22,36.39-79.92,80.81-78.81,42.68,1.07,77.07,36.58,76.82,79.28Z"/>
  <g>
    <path class="cls-1" d="M134.74,114.65c-1.25,2.19-2.74,4.19-4.3,5.99l-46.6-22.61c.74-3.68,2.11-7.39,4.15-10.92,7.98-13.85,22.22-20.5,34.74-15.88l.86-1.56c.63-1.21,2.11-1.64,3.29-1.02,1.21.63,1.68,2.11,1.02,3.33l-.74,1.41c12.87,7.9,16.31,26.21,7.59,41.28Z"/>
    <rect class="cls-1" x="68.88" y="112.67" width="64.35" height="19.56" rx="9.78" ry="9.78" transform="translate(63.57 -31.83) rotate(25.87)"/>
    <path class="cls-1" d="M86.8,132.02h11.88v4.85c0,3.28-2.66,5.94-5.94,5.94h0c-3.28,0-5.94-2.66-5.94-5.94v-4.85h0Z" transform="translate(69.26 -26.7) rotate(25.87)"/>
  </g>
</svg>